<svg width="150" height="24" viewBox="0 0 150 24" fill="none" xmlns="http://www.w3.org/2000/svg">
<g clip-path="url(#clip0_161_448)">
<path fill-rule="evenodd" clip-rule="evenodd" d="M0.197696 23.0461C0.329492 23.1789 0.505222 23.2454 0.724885 23.2454H7.90785C10.1703 23.2454 11.9496 22.9244 13.2456 22.2823C14.5416 21.6182 15.4642 20.6219 16.0134 19.2936C16.5625 17.9653 16.8591 16.2828 16.903 14.2461C16.925 13.2498 16.9359 12.3754 16.9359 11.6227C16.9359 10.8478 16.925 9.9623 16.903 8.96607C16.881 7.04001 16.5845 5.41286 16.0134 4.08455C15.4642 2.73409 14.5306 1.71573 13.2127 1.02944C11.8947 0.343147 10.0715 0 7.7431 0H0.724885C0.505222 0 0.329492 0.0664157 0.197696 0.199247C0.0658985 0.332078 0 0.520255 0 0.763776V22.5148C0 22.7362 0.0658985 22.9133 0.197696 23.0461ZM7.7431 21.2529H2.07581V1.99246H7.57835C10.2143 1.99246 12.0704 2.57914 13.1468 3.75247C14.2231 4.90367 14.7833 6.69687 14.8272 9.13211C14.8492 9.79626 14.8601 10.3719 14.8601 10.8589V12.3532C14.8601 12.8403 14.8492 13.4159 14.8272 14.0801C14.8052 15.8068 14.5636 17.2016 14.1023 18.2642C13.663 19.3047 12.9271 20.0685 11.8947 20.5555C10.8842 21.0204 9.50039 21.2529 7.7431 21.2529Z" fill="white"/>
<path d="M22.4963 23.0461C22.6281 23.1789 22.8038 23.2454 23.0235 23.2454H36.1374C36.3789 23.2454 36.5656 23.1789 36.6974 23.0461C36.8291 22.9133 36.8951 22.7362 36.8951 22.5148V22.0167C36.8951 21.7731 36.8291 21.585 36.6974 21.4522C36.5656 21.3193 36.3789 21.2529 36.1374 21.2529H24.3744V12.4529H35.1489C35.3904 12.4529 35.5771 12.3865 35.7089 12.2536C35.8409 12.1208 35.9066 11.9437 35.9066 11.7223V11.2242C35.9066 10.9807 35.8409 10.7925 35.7089 10.6596C35.5771 10.5268 35.3904 10.4604 35.1489 10.4604H24.3744V1.99246H35.8736C36.1154 1.99246 36.3021 1.92604 36.4339 1.79321C36.5656 1.66038 36.6316 1.48328 36.6316 1.26189V0.763776C36.6316 0.520255 36.5656 0.332078 36.4339 0.199247C36.3021 0.0664157 36.1154 0 35.8736 0H23.0235C22.8038 0 22.6281 0.0664157 22.4963 0.199247C22.3645 0.332078 22.2986 0.520255 22.2986 0.763776V22.5148C22.2986 22.7362 22.3645 22.9133 22.4963 23.0461Z" fill="white"/>
<path d="M48.4284 23.2454C48.1429 23.2454 47.9122 23.1789 47.7364 23.0461C47.5609 22.9133 47.4179 22.714 47.3082 22.4484L39.6639 1.02944C39.6199 0.896607 39.5981 0.774845 39.5981 0.664154C39.5981 0.487046 39.6639 0.332078 39.7956 0.199247C39.9276 0.0664157 40.0814 0 40.2569 0H40.9489C41.1686 0 41.3334 0.0664157 41.4431 0.199247C41.5749 0.309939 41.6519 0.409561 41.6739 0.498115L48.8897 20.8212L56.1057 0.498115C56.1497 0.409561 56.2264 0.309939 56.3364 0.199247C56.4462 0.0664157 56.6109 0 56.8307 0H57.5224C57.6982 0 57.8519 0.0664157 57.9837 0.199247C58.1157 0.332078 58.1814 0.487046 58.1814 0.664154C58.1814 0.774845 58.1594 0.896607 58.1157 1.02944L50.4714 22.4484C50.3834 22.714 50.2517 22.9133 50.0759 23.0461C49.9002 23.1789 49.6587 23.2454 49.3512 23.2454H48.4284Z" fill="white"/>
<path d="M73.4103 23.1789C74.3548 23.4446 75.3653 23.5774 76.4418 23.5774C78.1771 23.5774 79.6268 23.2121 80.7911 22.4816C81.9773 21.7289 82.8778 20.6884 83.4928 19.3601C84.1078 18.0317 84.4156 16.5042 84.4156 14.7774V0.763776C84.4156 0.520254 84.3496 0.332078 84.2178 0.199247C84.0861 0.0664156 83.8993 0 83.6576 0H70.1813C69.9616 0 69.7861 0.0664156 69.6541 0.199247C69.5223 0.332078 69.4566 0.509186 69.4566 0.730568V1.26189C69.4566 1.48328 69.5223 1.66038 69.6541 1.79321C69.7861 1.92604 69.9616 1.99246 70.1813 1.99246H82.3396V14.7442C82.3396 16.7588 81.8343 18.4081 80.8241 19.6921C79.8356 20.954 78.3748 21.585 76.4418 21.585C75.4313 21.585 74.4868 21.43 73.6081 21.1201C72.7513 20.788 72.0376 20.2677 71.4663 19.5593C70.9173 18.8509 70.5988 17.9211 70.5108 16.7699C70.4888 16.5706 70.4121 16.4046 70.2803 16.2718C70.1703 16.1389 70.0056 16.0725 69.7861 16.0725H69.1271C68.9073 16.0725 68.7316 16.15 68.5998 16.305C68.4901 16.4378 68.4351 16.6038 68.4351 16.8031C68.4791 17.9764 68.7096 18.9948 69.1271 19.8582C69.5663 20.6994 70.1483 21.3968 70.8733 21.9502C71.6201 22.5037 72.4658 22.9133 73.4103 23.1789Z" fill="white"/>
<path d="M91.1425 23.2454C90.9227 23.2454 90.747 23.1789 90.6152 23.0461C90.4835 22.9133 90.4175 22.7362 90.4175 22.5148V0.763776C90.4175 0.520255 90.4835 0.332078 90.6152 0.199247C90.747 0.0664157 90.9227 0 91.1425 0H91.7355C91.9772 0 92.164 0.0664157 92.2957 0.199247C92.4275 0.332078 92.4935 0.520255 92.4935 0.763776V10.4604H105.212V0.763776C105.212 0.520255 105.278 0.332078 105.41 0.199247C105.541 0.0664157 105.717 0 105.937 0H106.53C106.771 0 106.958 0.0664157 107.09 0.199247C107.222 0.332078 107.288 0.520255 107.288 0.763776V22.5148C107.288 22.7362 107.222 22.9133 107.09 23.0461C106.958 23.1789 106.771 23.2454 106.53 23.2454H105.937C105.717 23.2454 105.541 23.1789 105.41 23.0461C105.278 22.9133 105.212 22.7362 105.212 22.5148V12.4529H92.4935V22.5148C92.4935 22.7362 92.4275 22.9133 92.2957 23.0461C92.164 23.1789 91.9772 23.2454 91.7355 23.2454H91.1425Z" fill="white"/>
<path d="M133.855 23.0461C133.987 23.1789 134.162 23.2454 134.382 23.2454H134.975C135.217 23.2454 135.403 23.1789 135.535 23.0461C135.667 22.9133 135.733 22.7362 135.733 22.5148V4.18417L147.858 22.8469C147.902 22.8911 147.968 22.9686 148.056 23.0793C148.166 23.19 148.33 23.2454 148.55 23.2454H149.275C149.495 23.2454 149.67 23.1789 149.802 23.0461C149.934 22.8911 150 22.703 150 22.4816V0.763776C150 0.520255 149.934 0.332078 149.802 0.199247C149.67 0.0664157 149.484 0 149.242 0H148.649C148.429 0 148.254 0.0664157 148.122 0.199247C147.99 0.332078 147.924 0.520255 147.924 0.763776V19.1276L135.766 0.398492C135.744 0.354215 135.678 0.27673 135.568 0.166038C135.458 0.055346 135.293 0 135.074 0H134.382C134.162 0 133.987 0.0664157 133.855 0.199247C133.723 0.332078 133.657 0.520255 133.657 0.763776V22.5148C133.657 22.7362 133.723 22.9133 133.855 23.0461Z" fill="white"/>
<path fill-rule="evenodd" clip-rule="evenodd" d="M119.459 0.0572195C121.925 -0.223662 124.389 0.562805 126.223 2.21419C128.059 3.86752 129.111 6.23758 129.111 8.71707C129.111 11.2256 128.036 13.6131 126.162 15.2674C124.966 16.3251 124.306 17.7004 124.306 19.1397V19.6715C124.306 21.6425 122.715 23.2454 120.76 23.2454H120.165C118.209 23.2454 116.619 21.6425 116.619 19.6715V19.5155C116.619 17.9019 115.891 16.3319 114.57 15.0931C112.504 13.155 111.526 10.415 111.885 7.57612C112.38 3.66316 115.565 0.500817 119.459 0.0572195ZM120.165 21.3083H120.76C121.654 21.3083 122.385 20.5742 122.385 19.6715V19.3712H118.539C118.54 19.4187 118.541 19.4671 118.541 19.5155V19.6715C118.541 20.5742 119.269 21.3083 120.165 21.3083ZM122.612 17.4341C122.976 16.0771 123.765 14.8103 124.896 13.8107C126.354 12.5235 127.19 10.6668 127.19 8.71707C127.19 6.7887 126.37 4.94553 124.942 3.65928C123.694 2.53478 122.129 1.93719 120.471 1.93719C120.208 1.93719 119.943 1.95268 119.676 1.98271C116.651 2.32751 114.177 4.78282 113.793 7.82213C113.512 10.0343 114.274 12.168 115.879 13.6751C117.033 14.756 117.838 16.0481 118.242 17.4341H122.612Z" fill="#01B3FF"/>
</g>
<defs>
<clipPath id="clip0_161_448">
<rect width="150" height="23.6842" fill="white"/>
</clipPath>
</defs>
</svg>
