<svg width="19" height="24" viewBox="0 0 19 24" fill="none" xmlns="http://www.w3.org/2000/svg">
<path fill-rule="evenodd" clip-rule="evenodd" d="M8.45948 0.0572195C10.9255 -0.223662 13.3895 0.562805 15.223 2.21419C17.0587 3.86752 18.111 6.23758 18.111 8.71707C18.111 11.2256 17.0365 13.6131 15.1625 15.2674C13.966 16.3251 13.3057 17.7004 13.3057 19.1397V19.6715C13.3057 21.6425 11.7152 23.2454 9.75973 23.2454H9.16473C7.20898 23.2454 5.61874 21.6425 5.61874 19.6715V19.5155C5.61874 17.9019 4.89123 16.3319 3.56973 15.0931C1.50449 13.155 0.526239 10.415 0.885489 7.57612C1.38049 3.66316 4.56524 0.500817 8.45948 0.0572195ZM9.16473 21.3083H9.75973C10.6545 21.3083 11.3847 20.5742 11.3847 19.6715V19.3712H7.53873C7.53973 19.4187 7.54073 19.4671 7.54073 19.5155V19.6715C7.54073 20.5742 8.26923 21.3083 9.16473 21.3083ZM11.6125 17.4341C11.9757 16.0771 12.7647 14.8103 13.896 13.8107C15.3537 12.5235 16.19 10.6668 16.19 8.71707C16.19 6.7887 15.37 4.94553 13.942 3.65928C12.6937 2.53478 11.1292 1.93719 9.47123 1.93719C9.20798 1.93719 8.94273 1.95268 8.67573 1.98271C5.65123 2.32751 3.17674 4.78282 2.79324 7.82213C2.51249 10.0343 3.27374 12.168 4.87949 13.6751C6.03273 14.756 6.83823 16.0481 7.24173 17.4341H11.6125Z" fill="#01B3FF"/>
</svg>
